{
  "accessors": [
    {
      "bufferView": 2,
      "componentType": 5126,
      "count": 65533,
      "max": [
        0.48071861267089844,
        0.40770089626312256,
        1.3191031030146405e-05
      ],
      "min": [
        0.05726100504398346,
        -1.0128382444381714,
        -0.001909473561681807
      ],
      "type": "VEC3"
    },
    {
      "bufferView": 2,
      "byteOffset": 786396,
      "componentType": 5126,
      "count": 65533,
      "type": "VEC3"
    },
    {
      "bufferView": 1,
      "componentType": 5126,
      "count": 65533,
      "type": "VEC2"
    },
    {
      "bufferView": 0,
      "componentType": 5125,
      "count": 115431,
      "type": "SCALAR"
    },
    {
      "bufferView": 2,
      "byteOffset": 1572792,
      "componentType": 5126,
      "count": 65532,
      "max": [
        0.48071861267089844,
        0.12293076515197754,
        7.157213985919952e-07
      ],
      "min": [
        0.05118343234062195,
        -1.0128382444381714,
        -0.001909473561681807
      ],
      "type": "VEC3"
    },
    {
      "bufferView": 2,
      "byteOffset": 2359176,
      "componentType": 5126,
      "count": 65532,
      "type": "VEC3"
    },
    {
      "bufferView": 1,
      "byteOffset": 524264,
      "componentType": 5126,
      "count": 65532,
      "type": "VEC2"
    },
    {
      "bufferView": 0,
      "byteOffset": 461724,
      "componentType": 5125,
      "count": 117249,
      "type": "SCALAR"
    },
    {
      "bufferView": 2,
      "byteOffset": 3145560,
      "componentType": 5126,
      "count": 65534,
      "max": [
        0.48071861267089844,
        0.4528719186782837,
        7.278285920619965e-07
      ],
      "min": [
        0.05118343234062195,
        -0.41122615337371826,
        -0.0019094530725851655
      ],
      "type": "VEC3"
    },
    {
      "bufferView": 2,
      "byteOffset": 3931968,
      "componentType": 5126,
      "count": 65534,
      "type": "VEC3"
    },
    {
      "bufferView": 1,
      "byteOffset": 1048520,
      "componentType": 5126,
      "count": 65534,
      "type": "VEC2"
    },
    {
      "bufferView": 0,
      "byteOffset": 930720,
      "componentType": 5125,
      "count": 110649,
      "type": "SCALAR"
    },
    {
      "bufferView": 2,
      "byteOffset": 4718376,
      "componentType": 5126,
      "count": 65534,
      "max": [
        0.47580480575561523,
        0.27779126167297363,
        7.231719791889191e-07
      ],
      "min": [
        0.056025341153144836,
        -0.2846616506576538,
        -0.0019094474846497178
      ],
      "type": "VEC3"
    },
    {
      "bufferView": 2,
      "byteOffset": 5504784,
      "componentType": 5126,
      "count": 65534,
      "type": "VEC3"
    },
    {
      "bufferView": 1,
      "byteOffset": 1572792,
      "componentType": 5126,
      "count": 65534,
      "type": "VEC2"
    },
    {
      "bufferView": 0,
      "byteOffset": 1373316,
      "componentType": 5125,
      "count": 98298,
      "type": "SCALAR"
    },
    {
      "bufferView": 2,
      "byteOffset": 6291192,
      "componentType": 5126,
      "count": 65533,
      "max": [
        0.5319019556045532,
        1.056199312210083,
        7.492490112781525e-07
      ],
      "min": [
        0.0005787807749584317,
        -1.0562001466751099,
        -0.017521396279335022
      ],
      "type": "VEC3"
    },
    {
      "bufferView": 2,
      "byteOffset": 7077588,
      "componentType": 5126,
      "count": 65533,
      "type": "VEC3"
    },
    {
      "bufferView": 1,
      "byteOffset": 2097064,
      "componentType": 5126,
      "count": 65533,
      "type": "VEC2"
    },
    {
      "bufferView": 0,
      "byteOffset": 1766508,
      "componentType": 5125,
      "count": 99042,
      "type": "SCALAR"
    },
    {
      "bufferView": 2,
      "byteOffset": 7863984,
      "componentType": 5126,
      "count": 65534,
      "max": [
        0.47580480575561523,
        0.4992791414260864,
        1.3191031030146405e-05
      ],
      "min": [
        0.056025341153144836,
        -0.7592785358428955,
        -0.0019094642484560609
      ],
      "type": "VEC3"
    },
    {
      "bufferView": 2,
      "byteOffset": 8650392,
      "componentType": 5126,
      "count": 65534,
      "type": "VEC3"
    },
    {
      "bufferView": 1,
      "byteOffset": 2621328,
      "componentType": 5126,
      "count": 65534,
      "type": "VEC2"
    },
    {
      "bufferView": 0,
      "byteOffset": 2162676,
      "componentType": 5125,
      "count": 98298,
      "type": "SCALAR"
    },
    {
      "bufferView": 2,
      "byteOffset": 9436800,
      "componentType": 5126,
      "count": 65532,
      "max": [
        0.5319019556045532,
        1.056199550628662,
        0.0007208656170405447
      ],
      "min": [
        -0.0006349702016450465,
        -1.0562000274658203,
        -0.017521396279335022
      ],
      "type": "VEC3"
    },
    {
      "bufferView": 2,
      "byteOffset": 10223184,
      "componentType": 5126,
      "count": 65532,
      "type": "VEC3"
    },
    {
      "bufferView": 1,
      "byteOffset": 3145600,
      "componentType": 5126,
      "count": 65532,
      "type": "VEC2"
    },
    {
      "bufferView": 0,
      "byteOffset": 2555868,
      "componentType": 5125,
      "count": 111054,
      "type": "SCALAR"
    },
    {
      "bufferView": 2,
      "byteOffset": 11009568,
      "componentType": 5126,
      "count": 49467,
      "max": [
        0.48071861267089844,
        1.056199550628662,
        0.0006349403993226588
      ],
      "min": [
        -0.0006349702016450465,
        -1.0562001466751099,
        -0.001909473561681807
      ],
      "type": "VEC3"
    },
    {
      "bufferView": 2,
      "byteOffset": 11603172,
      "componentType": 5126,
      "count": 49467,
      "type": "VEC3"
    },
    {
      "bufferView": 1,
      "byteOffset": 3669856,
      "componentType": 5126,
      "count": 49467,
      "type": "VEC2"
    },
    {
      "bufferView": 0,
      "byteOffset": 3000084,
      "componentType": 5125,
      "count": 84573,
      "type": "SCALAR"
    },
    {
      "bufferView": 2,
      "byteOffset": 12196776,
      "componentType": 5126,
      "count": 54,
      "max": [
        0.5319019556045532,
        0.04186088964343071,
        0.0007208397146314383
      ],
      "min": [
        0.48071861267089844,
        -0.041861604899168015,
        -0.017521396279335022
      ],
      "type": "VEC3"
    },
    {
      "bufferView": 2,
      "byteOffset": 12197424,
      "componentType": 5126,
      "count": 54,
      "type": "VEC3"
    },
    {
      "bufferView": 1,
      "byteOffset": 4065592,
      "componentType": 5126,
      "count": 54,
      "type": "VEC2"
    },
    {
      "bufferView": 0,
      "byteOffset": 3338376,
      "componentType": 5125,
      "count": 90,
      "type": "SCALAR"
    },
    {
      "bufferView": 2,
      "byteOffset": 12198072,
      "componentType": 5126,
      "count": 852,
      "max": [
        0.2730512022972107,
        2.1397056579589844,
        0.5078154802322388
      ],
      "min": [
        -0.2732040584087372,
        0.012952923774719238,
        0.45743703842163086
      ],
      "type": "VEC3"
    },
    {
      "bufferView": 2,
      "byteOffset": 12208296,
      "componentType": 5126,
      "count": 852,
      "type": "VEC3"
    },
    {
      "bufferView": 1,
      "byteOffset": 4066024,
      "componentType": 5126,
      "count": 852,
      "type": "VEC2"
    },
    {
      "bufferView": 0,
      "byteOffset": 3338736,
      "componentType": 5125,
      "count": 2664,
      "type": "SCALAR"
    },
    {
      "bufferView": 2,
      "byteOffset": 12218520,
      "componentType": 5126,
      "count": 288,
      "max": [
        0.2732039988040924,
        2.1401681900024414,
        0.5078153610229492
      ],
      "min": [
        -0.2732039988040924,
        0.012952970340847969,
        -0.5078153610229492
      ],
      "type": "VEC3"
    },
    {
      "bufferView": 2,
      "byteOffset": 12221976,
      "componentType": 5126,
      "count": 288,
      "type": "VEC3"
    },
    {
      "bufferView": 1,
      "byteOffset": 4072840,
      "componentType": 5126,
      "count": 288,
      "type": "VEC2"
    },
    {
      "bufferView": 0,
      "byteOffset": 3349392,
      "componentType": 5125,
      "count": 972,
      "type": "SCALAR"
    },
    {
      "bufferView": 2,
      "byteOffset": 12225432,
      "componentType": 5126,
      "count": 1928,
      "max": [
        0.26669999957084656,
        2.1335999965667725,
        0.5586153864860535
      ],
      "min": [
        -0.26669999957084656,
        0.0,
        -0.5586153864860535
      ],
      "type": "VEC3"
    },
    {
      "bufferView": 2,
      "byteOffset": 12248568,
      "componentType": 5126,
      "count": 1928,
      "type": "VEC3"
    },
    {
      "bufferView": 1,
      "byteOffset": 4075144,
      "componentType": 5126,
      "count": 1928,
      "type": "VEC2"
    },
    {
      "bufferView": 0,
      "byteOffset": 3353280,
      "componentType": 5125,
      "count": 7008,
      "type": "SCALAR"
    }
  ],
  "asset": {
    "generator": "fab-model-conversion",
    "version": "2.0"
  },
  "bufferViews": [
    {
      "buffer": 0,
      "byteLength": 3381312,
      "target": 34963
    },
    {
      "buffer": 0,
      "byteLength": 4090568,
      "byteOffset": 3381312,
      "byteStride": 8,
      "target": 34962
    },
    {
      "buffer": 0,
      "byteLength": 12271704,
      "byteOffset": 7471880,
      "byteStride": 12,
      "target": 34962
    }
  ],
  "buffers": [
    {
      "byteLength": 19743584,
      "uri": "scene.bin"
    }
  ],
  "materials": [
    {
      "doubleSided": true,
      "name": "Black_Metal",
      "pbrMetallicRoughness": {
        "baseColorFactor": [
          0.0270095,
          0.0270095,
          0.0270095,
          1.0
        ],
        "roughnessFactor": 0.5
      }
    },
    {
      "doubleSided": true,
      "name": "Shiney_Metal",
      "pbrMetallicRoughness": {
        "baseColorFactor": [
          0.8,
          0.8,
          0.8,
          1.0
        ],
        "roughnessFactor": 0.2
      }
    },
    {
      "doubleSided": true,
      "name": "Rack_-_Metallic_Gray.002",
      "pbrMetallicRoughness": {
        "baseColorFactor": [
          0.6876,
          0.6876,
          0.6876,
          1.0
        ],
        "roughnessFactor": 0.4
      }
    }
  ],
  "meshes": [
    {
      "name": "Object_0",
      "primitives": [
        {
          "attributes": {
            "NORMAL": 1,
            "POSITION": 0,
            "TEXCOORD_0": 2
          },
          "indices": 3,
          "material": 0,
          "mode": 4
        }
      ]
    },
    {
      "name": "Object_1",
      "primitives": [
        {
          "attributes": {
            "NORMAL": 5,
            "POSITION": 4,
            "TEXCOORD_0": 6
          },
          "indices": 7,
          "material": 0,
          "mode": 4
        }
      ]
    },
    {
      "name": "Object_2",
      "primitives": [
        {
          "attributes": {
            "NORMAL": 9,
            "POSITION": 8,
            "TEXCOORD_0": 10
          },
          "indices": 11,
          "material": 0,
          "mode": 4
        }
      ]
    },
    {
      "name": "Object_3",
      "primitives": [
        {
          "attributes": {
            "NORMAL": 13,
            "POSITION": 12,
            "TEXCOORD_0": 14
          },
          "indices": 15,
          "material": 0,
          "mode": 4
        }
      ]
    },
    {
      "name": "Object_4",
      "primitives": [
        {
          "attributes": {
            "NORMAL": 17,
            "POSITION": 16,
            "TEXCOORD_0": 18
          },
          "indices": 19,
          "material": 0,
          "mode": 4
        }
      ]
    },
    {
      "name": "Object_5",
      "primitives": [
        {
          "attributes": {
            "NORMAL": 21,
            "POSITION": 20,
            "TEXCOORD_0": 22
          },
          "indices": 23,
          "material": 0,
          "mode": 4
        }
      ]
    },
    {
      "name": "Object_6",
      "primitives": [
        {
          "attributes": {
            "NORMAL": 25,
            "POSITION": 24,
            "TEXCOORD_0": 26
          },
          "indices": 27,
          "material": 0,
          "mode": 4
        }
      ]
    },
    {
      "name": "Object_7",
      "primitives": [
        {
          "attributes": {
            "NORMAL": 29,
            "POSITION": 28,
            "TEXCOORD_0": 30
          },
          "indices": 31,
          "material": 0,
          "mode": 4
        }
      ]
    },
    {
      "name": "Object_8",
      "primitives": [
        {
          "attributes": {
            "NORMAL": 33,
            "POSITION": 32,
            "TEXCOORD_0": 34
          },
          "indices": 35,
          "material": 1,
          "mode": 4
        }
      ]
    },
    {
      "name": "Object_9",
      "primitives": [
        {
          "attributes": {
            "NORMAL": 37,
            "POSITION": 36,
            "TEXCOORD_0": 38
          },
          "indices": 39,
          "material": 0,
          "mode": 4
        }
      ]
    },
    {
      "name": "Object_10",
      "primitives": [
        {
          "attributes": {
            "NORMAL": 41,
            "POSITION": 40,
            "TEXCOORD_0": 42
          },
          "indices": 43,
          "material": 0,
          "mode": 4
        }
      ]
    },
    {
      "name": "Object_11",
      "primitives": [
        {
          "attributes": {
            "NORMAL": 45,
            "POSITION": 44,
            "TEXCOORD_0": 46
          },
          "indices": 47,
          "material": 2,
          "mode": 4
        }
      ]
    }
  ],
  "nodes": [
    {
      "children": [
        1
      ],
      "matrix": [
        1.0,
        0.0,
        0.0,
        0.0,
        0.0,
        2.220446049250313e-16,
        -1.0,
        0.0,
        0.0,
        1.0,
        2.220446049250313e-16,
        0.0,
        0.0,
        0.0,
        0.0,
        1.0
      ],
      "name": "Sketchfab_model"
    },
    {
      "children": [
        2
      ],
      "name": "root"
    },
    {
      "children": [
        3,
        13,
        15
      ],
      "matrix": [
        1.0,
        0.0,
        0.0,
        0.0,
        0.0,
        2.220446049250313e-16,
        1.0,
        0.0,
        0.0,
        -1.0,
        2.220446049250313e-16,
        0.0,
        0.0,
        0.0,
        0.0,
        1.0
      ],
      "name": "GLTF_SceneRootNode"
    },
    {
      "children": [
        4,
        5,
        6,
        7,
        8,
        9,
        10,
        11,
        12
      ],
      "matrix": [
        1.0,
        0.0,
        0.0,
        0.0,
        0.0,
        1.0,
        0.0,
        0.0,
        0.0,
        0.0,
        1.0,
        0.0,
        -0.26602745056152344,
        1.0763297080993652,
        0.5587891936302185,
        1.0
      ],
      "name": "Tower - Door (base)_0"
    },
    {
      "mesh": 0,
      "name": "Object_4"
    },
    {
      "mesh": 1,
      "name": "Object_5"
    },
    {
      "mesh": 2,
      "name": "Object_6"
    },
    {
      "mesh": 3,
      "name": "Object_7"
    },
    {
      "mesh": 4,
      "name": "Object_8"
    },
    {
      "mesh": 5,
      "name": "Object_9"
    },
    {
      "mesh": 6,
      "name": "Object_10"
    },
    {
      "mesh": 7,
      "name": "Object_11"
    },
    {
      "mesh": 8,
      "name": "Object_12"
    },
    {
      "children": [
        14
      ],
      "matrix": [
        1.0,
        0.0,
        0.0,
        0.0,
        0.0,
        1.0,
        0.0,
        0.0,
        0.0,
        0.0,
        1.0,
        0.0,
        0.0,
        0.0,
        0.05097367987036705,
        1.0
      ],
      "name": "Tower - Door (Frame)_1"
    },
    {
      "mesh": 9,
      "name": "Object_14"
    },
    {
      "children": [
        16,
        17
      ],
      "name": "Tower - Main_2"
    },
    {
      "mesh": 10,
      "name": "Object_16"
    },
    {
      "mesh": 11,
      "name": "Object_17"
    }
  ],
  "scene": 0,
  "scenes": [
    {
      "name": "Sketchfab_Scene",
      "nodes": [
        0
      ]
    }
  ]
}
