{
  "accessors": [
    {
      "bufferView": 2,
      "componentType": 5126,
      "count": 9183,
      "max": [
        0.21329224109649658,
        0.04444998502731323,
        0.024298250675201416
      ],
      "min": [
        -0.21917974948883057,
        -0.04444998502731323,
        -0.5955875515937805
      ],
      "type": "VEC3"
    },
    {
      "bufferView": 2,
      "byteOffset": 110196,
      "componentType": 5126,
      "count": 9183,
      "type": "VEC3"
    },
    {
      "bufferView": 3,
      "componentType": 5126,
      "count": 9183,
      "type": "VEC4"
    },
    {
      "bufferView": 1,
      "componentType": 5126,
      "count": 9183,
      "type": "VEC2"
    },
    {
      "bufferView": 0,
      "componentType": 5125,
      "count": 15330,
      "type": "SCALAR"
    },
    {
      "bufferView": 2,
      "byteOffset": 220392,
      "componentType": 5126,
      "count": 296,
      "max": [
        0.19465318322181702,
        0.028495432808995247,
        0.024298250675201416
      ],
      "min": [
        0.02456193044781685,
        -0.02849542908370495,
        -0.5943038463592529
      ],
      "type": "VEC3"
    },
    {
      "bufferView": 2,
      "byteOffset": 223944,
      "componentType": 5126,
      "count": 296,
      "type": "VEC3"
    },
    {
      "bufferView": 1,
      "byteOffset": 73464,
      "componentType": 5126,
      "count": 296,
      "type": "VEC2"
    },
    {
      "bufferView": 0,
      "byteOffset": 61320,
      "componentType": 5125,
      "count": 930,
      "type": "SCALAR"
    },
    {
      "bufferView": 2,
      "byteOffset": 227496,
      "componentType": 5126,
      "count": 1564,
      "max": [
        0.22952008247375488,
        0.04125520959496498,
        0.02497875690460205
      ],
      "min": [
        -0.23540759086608887,
        -0.04162341728806496,
        0.0018797516822814941
      ],
      "type": "VEC3"
    },
    {
      "bufferView": 2,
      "byteOffset": 246264,
      "componentType": 5126,
      "count": 1564,
      "type": "VEC3"
    },
    {
      "bufferView": 1,
      "byteOffset": 75832,
      "componentType": 5126,
      "count": 1564,
      "type": "VEC2"
    },
    {
      "bufferView": 0,
      "byteOffset": 65040,
      "componentType": 5125,
      "count": 5058,
      "type": "SCALAR"
    },
    {
      "bufferView": 2,
      "byteOffset": 265032,
      "componentType": 5126,
      "count": 3633,
      "max": [
        0.23835623264312744,
        0.04444998502731323,
        0.001356661319732666
      ],
      "min": [
        -0.2442437708377838,
        -0.04444998875260353,
        -0.5947182774543762
      ],
      "type": "VEC3"
    },
    {
      "bufferView": 2,
      "byteOffset": 308628,
      "componentType": 5126,
      "count": 3633,
      "type": "VEC3"
    },
    {
      "bufferView": 1,
      "byteOffset": 88344,
      "componentType": 5126,
      "count": 3633,
      "type": "VEC2"
    },
    {
      "bufferView": 0,
      "byteOffset": 85272,
      "componentType": 5125,
      "count": 7494,
      "type": "SCALAR"
    },
    {
      "bufferView": 2,
      "byteOffset": 352224,
      "componentType": 5126,
      "count": 24,
      "max": [
        0.192773699760437,
        0.015538247302174568,
        0.023568153381347656
      ],
      "min": [
        0.13954180479049683,
        -4.425563383847475e-05,
        0.023568153381347656
      ],
      "type": "VEC3"
    },
    {
      "bufferView": 2,
      "byteOffset": 352512,
      "componentType": 5126,
      "count": 24,
      "type": "VEC3"
    },
    {
      "bufferView": 1,
      "byteOffset": 117408,
      "componentType": 5126,
      "count": 24,
      "type": "VEC2"
    },
    {
      "bufferView": 0,
      "byteOffset": 115248,
      "componentType": 5125,
      "count": 66,
      "type": "SCALAR"
    },
    {
      "bufferView": 2,
      "byteOffset": 352800,
      "componentType": 5126,
      "count": 60,
      "max": [
        0.17321181297302246,
        0.021651985123753548,
        0.024741053581237793
      ],
      "min": [
        0.1487659215927124,
        0.020091595128178596,
        0.024298250675201416
      ],
      "type": "VEC3"
    },
    {
      "bufferView": 2,
      "byteOffset": 353520,
      "componentType": 5126,
      "count": 60,
      "type": "VEC3"
    },
    {
      "bufferView": 1,
      "byteOffset": 117600,
      "componentType": 5126,
      "count": 60,
      "type": "VEC2"
    },
    {
      "bufferView": 0,
      "byteOffset": 115512,
      "componentType": 5125,
      "count": 90,
      "type": "SCALAR"
    },
    {
      "bufferView": 2,
      "byteOffset": 354240,
      "componentType": 5126,
      "count": 20,
      "max": [
        0.1837054193019867,
        0.021651985123753548,
        0.024741053581237793
      ],
      "min": [
        0.1805291473865509,
        0.020091595128178596,
        0.024298250675201416
      ],
      "type": "VEC3"
    },
    {
      "bufferView": 2,
      "byteOffset": 354480,
      "componentType": 5126,
      "count": 20,
      "type": "VEC3"
    },
    {
      "bufferView": 1,
      "byteOffset": 118080,
      "componentType": 5126,
      "count": 20,
      "type": "VEC2"
    },
    {
      "bufferView": 0,
      "byteOffset": 115872,
      "componentType": 5125,
      "count": 30,
      "type": "SCALAR"
    },
    {
      "bufferView": 2,
      "byteOffset": 354720,
      "componentType": 5126,
      "count": 552,
      "max": [
        -0.16744647920131683,
        0.005843079648911953,
        0.024032115936279297
      ],
      "min": [
        -0.19620707631111145,
        -0.005373414605855942,
        0.024032115936279297
      ],
      "type": "VEC3"
    },
    {
      "bufferView": 2,
      "byteOffset": 361344,
      "componentType": 5126,
      "count": 552,
      "type": "VEC3"
    },
    {
      "bufferView": 1,
      "byteOffset": 118240,
      "componentType": 5126,
      "count": 552,
      "type": "VEC2"
    },
    {
      "bufferView": 0,
      "byteOffset": 115992,
      "componentType": 5125,
      "count": 2484,
      "type": "SCALAR"
    },
    {
      "bufferView": 2,
      "byteOffset": 367968,
      "componentType": 5126,
      "count": 768,
      "max": [
        0.23040986061096191,
        0.042145002633333206,
        0.0018797516822814941
      ],
      "min": [
        -0.2362973690032959,
        -0.04251321032643318,
        0.001356661319732666
      ],
      "type": "VEC3"
    },
    {
      "bufferView": 2,
      "byteOffset": 377184,
      "componentType": 5126,
      "count": 768,
      "type": "VEC3"
    },
    {
      "bufferView": 1,
      "byteOffset": 122656,
      "componentType": 5126,
      "count": 768,
      "type": "VEC2"
    },
    {
      "bufferView": 0,
      "byteOffset": 125928,
      "componentType": 5125,
      "count": 2304,
      "type": "SCALAR"
    },
    {
      "bufferView": 2,
      "byteOffset": 386400,
      "componentType": 5126,
      "count": 3230,
      "max": [
        0.05880679190158844,
        0.02750955894589424,
        -0.5752962231636047
      ],
      "min": [
        -0.08857623487710953,
        -0.02808489091694355,
        -0.8793984055519104
      ],
      "type": "VEC3"
    },
    {
      "bufferView": 2,
      "byteOffset": 425160,
      "componentType": 5126,
      "count": 3230,
      "type": "VEC3"
    },
    {
      "bufferView": 1,
      "byteOffset": 128800,
      "componentType": 5126,
      "count": 3230,
      "type": "VEC2"
    },
    {
      "bufferView": 0,
      "byteOffset": 135144,
      "componentType": 5125,
      "count": 10668,
      "type": "SCALAR"
    }
  ],
  "asset": {
    "generator": "fab-model-conversion",
    "version": "2.0"
  },
  "bufferViews": [
    {
      "buffer": 0,
      "byteLength": 177816,
      "target": 34963
    },
    {
      "buffer": 0,
      "byteLength": 154640,
      "byteOffset": 177816,
      "byteStride": 8,
      "target": 34962
    },
    {
      "buffer": 0,
      "byteLength": 463920,
      "byteOffset": 332456,
      "byteStride": 12,
      "target": 34962
    },
    {
      "buffer": 0,
      "byteLength": 146928,
      "byteOffset": 796376,
      "byteStride": 16,
      "target": 34962
    }
  ],
  "buffers": [
    {
      "byteLength": 943304,
      "uri": "scene.bin"
    }
  ],
  "images": [
    {
      "uri": "textures/Rack_-_Black_Plastic_baseColor.png"
    },
    {
      "uri": "textures/Rack_-_Black_Plastic_metallicRoughness.png"
    },
    {
      "uri": "textures/Rack_-_Black_Plastic_normal.png"
    }
  ],
  "materials": [
    {
      "doubleSided": true,
      "name": "Rack_-_Black_Plastic",
      "normalTexture": {
        "index": 2
      },
      "pbrMetallicRoughness": {
        "baseColorTexture": {
          "index": 0
        },
        "metallicRoughnessTexture": {
          "index": 1
        }
      }
    },
    {
      "doubleSided": true,
      "name": "Rack_-_Black_Smooth_Plastic_Clearcoat",
      "pbrMetallicRoughness": {
        "baseColorFactor": [
          0.000692031,
          0.000713824,
          0.000670465,
          1.0
        ],
        "metallicFactor": 0.0,
        "roughnessFactor": 0.75
      }
    },
    {
      "doubleSided": true,
      "name": "Rack_-_Black_Smooth_Plastic",
      "pbrMetallicRoughness": {
        "baseColorFactor": [
          0.000692031,
          0.000713824,
          0.000670465,
          1.0
        ],
        "metallicFactor": 0.0,
        "roughnessFactor": 0.75
      }
    },
    {
      "doubleSided": true,
      "name": "Rack_-_Light_Gray_Metal",
      "pbrMetallicRoughness": {
        "baseColorFactor": [
          0.8,
          0.8,
          0.8,
          1.0
        ],
        "roughnessFactor": 0.496865
      }
    },
    {
      "doubleSided": true,
      "name": "LED_Battery_Screen",
      "pbrMetallicRoughness": {
        "baseColorFactor": [
          0.223537,
          0.322284,
          0.997524,
          1.0
        ],
        "metallicFactor": 0.0,
        "roughnessFactor": 0.5
      }
    },
    {
      "doubleSided": true,
      "emissiveFactor": [
        0.0423114,
        0.83077,
        0.351533
      ],
      "name": "LED_Lights_-_Green",
      "pbrMetallicRoughness": {
        "baseColorFactor": [
          0.0292908,
          0.56311,
          0.057687,
          1.0
        ],
        "metallicFactor": 0.0,
        "roughnessFactor": 0.5
      }
    },
    {
      "doubleSided": true,
      "emissiveFactor": [
        0.83077,
        0.0243877,
        0.0425981
      ],
      "name": "LED_Lights_-_Red",
      "pbrMetallicRoughness": {
        "baseColorFactor": [
          0.56311,
          0.0141741,
          0.0141741,
          1.0
        ],
        "metallicFactor": 0.0,
        "roughnessFactor": 0.5
      }
    },
    {
      "doubleSided": true,
      "name": "Logo_-_Shine",
      "pbrMetallicRoughness": {
        "baseColorFactor": [
          0.318539,
          0.318539,
          0.318539,
          1.0
        ],
        "roughnessFactor": 0.366142
      }
    },
    {
      "doubleSided": true,
      "name": "Rack_-_Metal_Screws",
      "pbrMetallicRoughness": {
        "baseColorFactor": [
          0.486895,
          0.486895,
          0.486895,
          1.0
        ],
        "roughnessFactor": 0.3
      }
    },
    {
      "doubleSided": true,
      "name": "Material",
      "pbrMetallicRoughness": {
        "baseColorFactor": [
          0.00424172,
          0.00424172,
          0.00424172,
          1.0
        ],
        "metallicFactor": 0.0,
        "roughnessFactor": 0.3
      }
    }
  ],
  "meshes": [
    {
      "name": "Object_0",
      "primitives": [
        {
          "attributes": {
            "NORMAL": 1,
            "POSITION": 0,
            "TANGENT": 2,
            "TEXCOORD_0": 3
          },
          "indices": 4,
          "material": 0,
          "mode": 4
        }
      ]
    },
    {
      "name": "Object_1",
      "primitives": [
        {
          "attributes": {
            "NORMAL": 6,
            "POSITION": 5,
            "TEXCOORD_0": 7
          },
          "indices": 8,
          "material": 1,
          "mode": 4
        }
      ]
    },
    {
      "name": "Object_2",
      "primitives": [
        {
          "attributes": {
            "NORMAL": 10,
            "POSITION": 9,
            "TEXCOORD_0": 11
          },
          "indices": 12,
          "material": 2,
          "mode": 4
        }
      ]
    },
    {
      "name": "Object_3",
      "primitives": [
        {
          "attributes": {
            "NORMAL": 14,
            "POSITION": 13,
            "TEXCOORD_0": 15
          },
          "indices": 16,
          "material": 3,
          "mode": 4
        }
      ]
    },
    {
      "name": "Object_4",
      "primitives": [
        {
          "attributes": {
            "NORMAL": 18,
            "POSITION": 17,
            "TEXCOORD_0": 19
          },
          "indices": 20,
          "material": 4,
          "mode": 4
        }
      ]
    },
    {
      "name": "Object_5",
      "primitives": [
        {
          "attributes": {
            "NORMAL": 22,
            "POSITION": 21,
            "TEXCOORD_0": 23
          },
          "indices": 24,
          "material": 5,
          "mode": 4
        }
      ]
    },
    {
      "name": "Object_6",
      "primitives": [
        {
          "attributes": {
            "NORMAL": 26,
            "POSITION": 25,
            "TEXCOORD_0": 27
          },
          "indices": 28,
          "material": 6,
          "mode": 4
        }
      ]
    },
    {
      "name": "Object_7",
      "primitives": [
        {
          "attributes": {
            "NORMAL": 30,
            "POSITION": 29,
            "TEXCOORD_0": 31
          },
          "indices": 32,
          "material": 7,
          "mode": 4
        }
      ]
    },
    {
      "name": "Object_8",
      "primitives": [
        {
          "attributes": {
            "NORMAL": 34,
            "POSITION": 33,
            "TEXCOORD_0": 35
          },
          "indices": 36,
          "material": 8,
          "mode": 4
        }
      ]
    },
    {
      "name": "Object_9",
      "primitives": [
        {
          "attributes": {
            "NORMAL": 38,
            "POSITION": 37,
            "TEXCOORD_0": 39
          },
          "indices": 40,
          "material": 9,
          "mode": 4
        }
      ]
    }
  ],
  "nodes": [
    {
      "children": [
        1
      ],
      "matrix": [
        1.0,
        0.0,
        0.0,
        0.0,
        0.0,
        2.220446049250313e-16,
        -1.0,
        0.0,
        0.0,
        1.0,
        2.220446049250313e-16,
        0.0,
        0.0,
        0.0,
        0.0,
        1.0
      ],
      "name": "Sketchfab_model"
    },
    {
      "children": [
        2
      ],
      "name": "root"
    },
    {
      "children": [
        3
      ],
      "matrix": [
        1.0,
        0.0,
        0.0,
        0.0,
        0.0,
        2.220446049250313e-16,
        1.0,
        0.0,
        0.0,
        -1.0,
        2.220446049250313e-16,
        0.0,
        0.0,
        0.0,
        0.0,
        1.0
      ],
      "name": "GLTF_SceneRootNode"
    },
    {
      "children": [
        4,
        5,
        6,
        7,
        8,
        9,
        10,
        11,
        12,
        13
      ],
      "name": "Rack - Battery 2-Slot.001_2"
    },
    {
      "mesh": 0,
      "name": "Object_4"
    },
    {
      "mesh": 1,
      "name": "Object_5"
    },
    {
      "mesh": 2,
      "name": "Object_6"
    },
    {
      "mesh": 3,
      "name": "Object_7"
    },
    {
      "mesh": 4,
      "name": "Object_8"
    },
    {
      "mesh": 5,
      "name": "Object_9"
    },
    {
      "mesh": 6,
      "name": "Object_10"
    },
    {
      "mesh": 7,
      "name": "Object_11"
    },
    {
      "mesh": 8,
      "name": "Object_12"
    },
    {
      "mesh": 9,
      "name": "Object_13"
    }
  ],
  "samplers": [
    {
      "magFilter": 9729,
      "minFilter": 9987,
      "wrapS": 10497,
      "wrapT": 10497
    }
  ],
  "scene": 0,
  "scenes": [
    {
      "name": "Sketchfab_Scene",
      "nodes": [
        0
      ]
    }
  ],
  "textures": [
    {
      "sampler": 0,
      "source": 0
    },
    {
      "sampler": 0,
      "source": 1
    },
    {
      "sampler": 0,
      "source": 2
    }
  ]
}
